Normalized EMG Linear Envelopes
nRows=21
nColumns=17

endheader
time	        VM	        VL	        RF	       GRA	        TA	   ADDLONG	   SEMIMEM	      BFLH	        GM	        GL	       TFL	   GLUTMAX	   GLUTMED	      PIRI	    OBTINT	        QF	
2.4375	  0.296728	  0.210596	  0.033017	  0.176997	  0.197775	  0.049238	  0.380370	  0.623964	  0.419221	  0.164268	  0.030218	  0.357639	  0.190686	  0.450113	  0.531762	  0.968438	
2.438	  0.299322	  0.213364	  0.033377	  0.176151	  0.197542	  0.049377	  0.375181	  0.619782	  0.421724	  0.166941	  0.030681	  0.361847	  0.191442	  0.451063	  0.535550	  0.973212	
2.4385	  0.301945	  0.216150	  0.033738	  0.175315	  0.197281	  0.049513	  0.370062	  0.615581	  0.424247	  0.169653	  0.031147	  0.366062	  0.192197	  0.452007	  0.539420	  0.977955	
2.439	  0.304597	  0.218952	  0.034101	  0.174489	  0.196994	  0.049645	  0.365015	  0.611365	  0.426792	  0.172404	  0.031616	  0.370281	  0.192954	  0.452945	  0.543371	  0.982665	
2.4395	  0.307276	  0.221772	  0.034466	  0.173672	  0.196679	  0.049775	  0.360042	  0.607138	  0.429359	  0.175194	  0.032088	  0.374504	  0.193712	  0.453875	  0.547403	  0.987341	
2.44	  0.309981	  0.224607	  0.034831	  0.172866	  0.196338	  0.049901	  0.355145	  0.602904	  0.431946	  0.178023	  0.032562	  0.378727	  0.194472	  0.454798	  0.551512	  0.991980	
2.4405	  0.312712	  0.227457	  0.035198	  0.172070	  0.195971	  0.050024	  0.350325	  0.598667	  0.434555	  0.180890	  0.033039	  0.382949	  0.195236	  0.455712	  0.555699	  0.996583	
2.441	  0.315467	  0.230322	  0.035566	  0.171286	  0.195579	  0.050143	  0.345584	  0.594432	  0.437184	  0.183795	  0.033518	  0.387167	  0.196003	  0.456615	  0.559960	  1.001147	
2.4415	  0.318244	  0.233202	  0.035934	  0.170512	  0.195161	  0.050259	  0.340925	  0.590202	  0.439832	  0.186738	  0.034000	  0.391380	  0.196774	  0.457508	  0.564295	  1.005671	
2.442	  0.321044	  0.236095	  0.036303	  0.169751	  0.194719	  0.050371	  0.336348	  0.585980	  0.442501	  0.189720	  0.034483	  0.395586	  0.197551	  0.458388	  0.568700	  1.010152	
2.4425	  0.323864	  0.239000	  0.036673	  0.169002	  0.194253	  0.050479	  0.331855	  0.581771	  0.445188	  0.192739	  0.034969	  0.399784	  0.198334	  0.459254	  0.573176	  1.014590	
2.443	  0.326704	  0.241918	  0.037043	  0.168265	  0.193763	  0.050584	  0.327447	  0.577578	  0.447893	  0.195795	  0.035456	  0.403971	  0.199124	  0.460106	  0.577718	  1.018982	
2.4435	  0.329563	  0.244848	  0.037413	  0.167541	  0.193251	  0.050685	  0.323126	  0.573405	  0.450614	  0.198889	  0.035944	  0.408146	  0.199922	  0.460942	  0.582326	  1.023327	
2.444	  0.332440	  0.247788	  0.037782	  0.166831	  0.192717	  0.050782	  0.318893	  0.569256	  0.453352	  0.202020	  0.036434	  0.412308	  0.200728	  0.461761	  0.586996	  1.027624	
2.4445	  0.335334	  0.250738	  0.038152	  0.166135	  0.192161	  0.050876	  0.314749	  0.565133	  0.456104	  0.205189	  0.036924	  0.416454	  0.201543	  0.462562	  0.591726	  1.031870	
2.445	  0.338244	  0.253696	  0.038521	  0.165452	  0.191585	  0.050965	  0.310694	  0.561040	  0.458871	  0.208393	  0.037416	  0.420583	  0.202368	  0.463343	  0.596514	  1.036065	
2.4455	  0.341169	  0.256663	  0.038889	  0.164784	  0.190989	  0.051050	  0.306731	  0.556980	  0.461649	  0.211634	  0.037909	  0.424693	  0.203203	  0.464103	  0.601356	  1.040207	
2.446	  0.344109	  0.259636	  0.039257	  0.164130	  0.190374	  0.051131	  0.302860	  0.552956	  0.464438	  0.214911	  0.038402	  0.428783	  0.204050	  0.464841	  0.606251	  1.044297	
2.4465	  0.347062	  0.262616	  0.039624	  0.163491	  0.189741	  0.051209	  0.299082	  0.548972	  0.467237	  0.218223	  0.038896	  0.432849	  0.204908	  0.465555	  0.611194	  1.048333	
2.447	  0.350027	  0.265601	  0.039989	  0.162866	  0.189092	  0.051282	  0.295398	  0.545030	  0.470044	  0.221570	  0.039390	  0.436891	  0.205778	  0.466245	  0.616183	  1.052316	
2.4475	  0.353003	  0.268590	  0.040353	  0.162256	  0.188426	  0.051350	  0.291809	  0.541132	  0.472858	  0.224951	  0.039884	  0.440905	  0.206660	  0.466908	  0.621216	  1.056244	
